<svg xmlns="http://www.w3.org/2000/svg" viewBox="0 0 480 360" role="img"><title>bowl matcha</title><circle cx="240" cy="200" r="148" fill="#dee1c5"/><circle cx="246" cy="196" r="158" fill="none" stroke="#b3c68b" stroke-width="3" stroke-dasharray="520 60 140 40" stroke-linecap="round"/><ellipse cx="240" cy="284" rx="126" ry="20" fill="#f3ecdf" stroke="#22352b" stroke-width="4" stroke-linejoin="round" stroke-linecap="round"/><path d="M126 176 C 132 250, 186 280, 240 280 C 294 280, 348 250, 354 176 Z" fill="#e9dcc3" stroke="#22352b" stroke-width="4" stroke-linejoin="round" stroke-linecap="round"/><path d="M148 200 C 170 250, 206 266, 240 268" fill="none" stroke="#d8c7a6" stroke-width="10" stroke-linecap="round"/><path d="M140 236 C 200 246, 280 246, 340 236" fill="none" stroke="#22352b" stroke-opacity=".2" stroke-width="3"/><ellipse cx="240" cy="176" rx="114" ry="24" fill="#e9dcc3" stroke="#22352b" stroke-width="4" stroke-linejoin="round" stroke-linecap="round"/><ellipse cx="240" cy="178" rx="102" ry="18" fill="#7da23f"/><circle cx="206" cy="176" r="5" fill="#b8cc95"/><circle cx="222" cy="182" r="4" fill="#b8cc95"/><circle cx="240" cy="174" r="6" fill="#b8cc95"/><circle cx="258" cy="181" r="4" fill="#b8cc95"/><circle cx="274" cy="175" r="5" fill="#b8cc95"/><circle cx="230" cy="170" r="3" fill="#b8cc95"/><circle cx="252" cy="170" r="3" fill="#b8cc95"/><circle cx="286" cy="181" r="3" fill="#b8cc95"/><circle cx="196" cy="183" r="3" fill="#b8cc95"/><g transform="translate(384 206) rotate(18)"><rect x="-9" y="0" width="18" height="70" rx="6" fill="#d8b77a" stroke="#22352b" stroke-width="3" stroke-linejoin="round" stroke-linecap="round"/><path d="M-18 0 C -20 -38, 20 -38, 18 0 Z" fill="#f0dfb6" stroke="#22352b" stroke-width="3" stroke-linejoin="round" stroke-linecap="round"/><path d="M-9 -4 C -8 -24, 8 -24, 9 -4 M0 -2 L0 -28" fill="none" stroke="#22352b" stroke-opacity=".45" stroke-width="2"/></g></svg>
